<svg width="63" height="64" viewBox="0 0 63 64" fill="none" xmlns="http://www.w3.org/2000/svg">
<path d="M61.934 39.3555L59.3925 37.4714C59.6965 35.6567 59.821 33.8202 59.7624 31.9984C59.821 30.1765 59.6965 28.3399 59.3925 26.5254L61.934 24.6412C62.6262 24.1285 62.8789 23.2112 62.5493 22.4165L59.6819 15.4877C59.3523 14.6931 58.5027 14.228 57.675 14.3506L54.5403 14.8157C52.7312 12.2724 50.5377 10.0787 48.0034 8.27337L48.5787 5.02024C48.7068 4.17062 48.238 3.34299 47.4434 3.01337L40.5147 0.144118C39.7199 -0.187257 38.8044 0.0672431 38.2917 0.759368L36.2919 3.42474C33.223 2.90474 30.1175 2.90649 27.0414 3.42287L25.0417 0.759368C24.5289 0.0672431 23.6172 -0.187257 22.8188 0.144118L15.89 3.01337C15.0954 3.34299 14.6267 4.17062 14.7548 5.02024L15.33 8.27337C12.7885 10.0861 10.5949 12.2797 8.78953 14.8176L5.65841 14.3507C4.80516 14.2317 3.97753 14.6914 3.65153 15.4879L0.784157 22.4165C0.454532 23.2111 0.707282 24.1285 1.39941 24.6412L3.94091 26.5236C3.63691 28.3474 3.51241 30.1857 3.57103 31.9362C3.51241 33.7892 3.63691 35.646 3.94091 37.4734L1.39941 39.3557C0.707282 39.8685 0.454532 40.7857 0.784157 41.5805L3.65153 48.5092C3.97741 49.3039 4.80141 49.7544 5.65841 49.6464L8.78953 49.1795C10.5949 51.7174 12.7885 53.911 15.33 55.7237L14.7437 58.9799C14.6155 59.8295 15.0843 60.6571 15.8789 60.9867L22.8077 63.856C23.606 64.1874 24.5179 63.9347 25.0305 63.2407L27.0415 60.5742C30.125 61.0906 33.2232 61.0925 36.292 60.5724L38.303 63.2407C38.8122 63.9272 39.726 64.1871 40.5259 63.856L47.4547 60.9867C48.2493 60.6571 48.718 59.8295 48.5899 58.9799L48.0035 55.7237C50.5377 53.9184 52.7313 51.7247 54.5404 49.1814L57.6752 49.6465C58.5102 49.76 59.3524 49.3022 59.682 48.5094L62.5494 41.5806C62.8788 40.7856 62.6262 39.8682 61.934 39.3555Z" fill="url(#paint0_linear_3_183)"/>
<path d="M31.6667 11.3733C20.304 11.3733 11.0417 20.6357 11.0417 31.9983C11.0417 43.3607 20.304 52.6233 31.6667 52.6233C43.0293 52.6233 52.2917 43.3607 52.2917 31.9983C52.2917 20.6357 43.0293 11.3733 31.6667 11.3733ZM25.479 34.4357C26.229 35.1482 26.229 36.3482 25.479 37.0607C24.8045 37.8107 23.529 37.8109 22.8542 37.0607L19.1042 33.3107C18.3542 32.5982 18.3542 31.3982 19.1042 30.6855L22.8542 26.9355C23.5667 26.1857 24.7664 26.1857 25.479 26.9355C26.229 27.648 26.229 28.848 25.479 29.5605L23.0792 31.9982L25.479 34.4357ZM34.4417 28.6983L32.5667 36.1983C32.2472 37.4232 30.8634 37.8408 30.2792 37.5483C29.2665 37.3233 28.6667 36.3107 28.8917 35.2984L30.7667 27.7984C31.0292 26.7858 32.0415 26.1859 33.0542 26.4482C34.0668 26.6732 34.6667 27.6857 34.4417 28.6983ZM44.229 33.3107L40.479 37.0607C39.8045 37.8107 38.529 37.8109 37.8542 37.0607C37.1042 36.3482 37.1042 35.1482 37.8542 34.4357L40.254 31.9983L37.8542 29.5607C37.1042 28.8482 37.1042 27.6482 37.8542 26.9357C38.5667 26.1858 39.7664 26.1858 40.479 26.9357L44.229 30.6857C44.9792 31.3982 44.9792 32.5982 44.229 33.3107Z" fill="url(#paint1_linear_3_183)"/>
<defs>
<linearGradient id="paint0_linear_3_183" x1="31.6667" y1="64" x2="31.6667" y2="-7.62939e-06" gradientUnits="userSpaceOnUse">
<stop stop-color="#A93AFF"/>
<stop offset="1" stop-color="#FF81FF"/>
</linearGradient>
<linearGradient id="paint1_linear_3_183" x1="31.6667" y1="52.6233" x2="31.6667" y2="11.3733" gradientUnits="userSpaceOnUse">
<stop stop-color="#FFBEF9"/>
<stop offset="1" stop-color="#FFF1FF"/>
</linearGradient>
</defs>
</svg>
