<svg width="64" height="54" viewBox="0 0 64 54" fill="none" xmlns="http://www.w3.org/2000/svg">
<path d="M64 12L24.2712 4.5L22.325 1.575C21.95 1.05 21.3875 0.75 20.75 0.75H1.875C0.825 0.75 0 1.575 0 2.625V23.25L1.875 25.125L0 27V30.75L5.75 32.625L0 34.5V38.25L4.9625 40.125L0 42V51.375C0 52.425 0.825 53.25 1.875 53.25H62.125C63.175 53.25 64 52.425 64 51.375V42C64 42 61.6375 40.125 62.125 40.125L64 38.25V34.5L60.25 32.625L64 30.75V27L59.1625 25.125L64 23.25V12Z" fill="url(#paint0_linear_3_191)"/>
<path d="M10.8124 26.4374L14.5624 22.6874C15.3124 21.9749 15.3124 20.7749 14.5624 20.0624C13.8499 19.3125 12.6501 19.3125 11.9375 20.0624L8.71237 23.25H0V27H9.5C9.9875 27 10.475 26.8125 10.8124 26.4374ZM10.8124 38.8124C10.475 38.4375 9.9875 38.25 9.5 38.25H0V42H8.71237L11.9375 45.1874C12.6123 45.9376 13.8879 45.9374 14.5624 45.1874C15.3124 44.4749 15.3124 43.2749 14.5624 42.5624L10.8124 38.8124ZM17 30.75H0V34.5H17C18.0501 34.5 18.875 33.6749 18.875 32.625C18.875 31.5749 18.0501 30.75 17 30.75ZM52.0624 20.0624C51.3496 19.3125 50.1502 19.3125 49.4375 20.0624C48.6872 20.7749 48.6872 21.9749 49.4375 22.6874L53.1875 26.4374C53.525 26.8125 54.0125 27 54.5 27H64V23.25H55.2874L52.0624 20.0624ZM53.1876 38.8124L49.4376 42.5624C48.6874 43.2749 48.6874 44.4749 49.4376 45.1874C50.1124 45.9376 51.388 45.9374 52.0625 45.1874L55.2875 42H64V38.25H54.5C54.0125 38.25 53.525 38.4375 53.1876 38.8124ZM45.125 32.625C45.125 33.6749 45.9499 34.5 47 34.5H64V30.75H47C45.9499 30.75 45.125 31.5749 45.125 32.625ZM37.625 23.5954V21.375C37.625 20.3386 36.7864 19.5 35.75 19.5C34.7136 19.5 33.875 20.3386 33.875 21.375V23.25H30.125V21.375C30.125 20.3386 29.2864 19.5 28.25 19.5C27.2136 19.5 26.375 20.3386 26.375 21.375V23.25H24.5C23.4636 23.25 22.625 24.0886 22.625 25.125C22.625 26.1614 23.4636 27 24.5 27H26.375V38.25H24.5C23.4636 38.25 22.625 39.0886 22.625 40.125C22.625 41.1614 23.4636 42 24.5 42H26.375V43.875C26.375 44.9114 27.2136 45.75 28.25 45.75C29.2864 45.75 30.125 44.9114 30.125 43.875V42H33.875V43.875C33.875 44.9114 34.7136 45.75 35.75 45.75C36.7864 45.75 37.625 44.9114 37.625 43.875V41.6546C39.803 40.8781 41.375 38.8162 41.375 36.375C41.375 34.9291 40.8115 33.6224 39.912 32.625C40.8115 31.6276 41.375 30.3209 41.375 28.875C41.375 26.4338 39.803 24.372 37.625 23.5954ZM35.75 38.25H30.125V34.5H35.75C36.7827 34.5 37.625 35.3405 37.625 36.375C37.625 37.4095 36.7827 38.25 35.75 38.25ZM35.75 30.75H30.125V27H35.75C36.7827 27 37.625 27.8405 37.625 28.875C37.625 29.9095 36.7827 30.75 35.75 30.75ZM62.125 4.5H24.2712L28.706 11.1639C29.0536 11.6863 29.6395 12 30.2669 12H64V6.375C64 5.3395 63.1605 4.5 62.125 4.5Z" fill="url(#paint1_linear_3_191)"/>
<defs>
<linearGradient id="paint0_linear_3_191" x1="32" y1="53.25" x2="32" y2="0.75" gradientUnits="userSpaceOnUse">
<stop stop-color="#A93AFF"/>
<stop offset="1" stop-color="#FF81FF"/>
</linearGradient>
<linearGradient id="paint1_linear_3_191" x1="32" y1="45.75" x2="32" y2="4.5" gradientUnits="userSpaceOnUse">
<stop stop-color="#FFBEF9"/>
<stop offset="1" stop-color="#FFF1FF"/>
</linearGradient>
</defs>
</svg>
