<svg width="64" height="42" viewBox="0 0 64 42" fill="none" xmlns="http://www.w3.org/2000/svg">
<path d="M63.2969 19.4943L44.8614 4.82209C37.4272 -1.05191 26.5837 -1.06104 19.1278 4.83121L0.703125 19.4943C0.26 19.8496 0 20.3878 0 20.9573C0 21.5268 0.26 22.0651 0.703125 22.4203L19.1386 37.0926C26.5905 42.9807 37.1473 43.1883 44.8722 37.0835L63.2967 22.4203C63.7399 22.0651 63.9999 21.5268 63.9999 20.9573C63.9999 20.3878 63.74 19.8496 63.2969 19.4943Z" fill="url(#paint0_linear_3_159)"/>
<path d="M32 7.83228C24.7636 7.83228 18.875 13.7209 18.875 20.9573C18.875 28.1702 24.7425 34.0823 32 34.0823C39.2364 34.0823 45.125 28.1937 45.125 20.9573C45.125 13.7444 39.2575 7.83228 32 7.83228ZM22.625 20.9573C22.625 15.7882 26.8291 11.5823 32 11.5823C33.9075 11.5823 35.6795 12.1615 37.1609 13.1435L24.1869 26.1202C23.2045 24.6377 22.625 22.8653 22.625 20.9573ZM32 30.3323C30.0925 30.3323 28.3205 29.7529 26.8391 28.771L39.813 15.7944C40.7954 17.2769 41.3749 19.0494 41.3749 20.9573C41.375 26.1263 37.1709 30.3323 32 30.3323Z" fill="url(#paint1_linear_3_159)"/>
<defs>
<linearGradient id="paint0_linear_3_159" x1="32" y1="41.5857" x2="32" y2="0.414213" gradientUnits="userSpaceOnUse">
<stop stop-color="#A93AFF"/>
<stop offset="1" stop-color="#FF81FF"/>
</linearGradient>
<linearGradient id="paint1_linear_3_159" x1="32" y1="34.0823" x2="32" y2="7.83228" gradientUnits="userSpaceOnUse">
<stop stop-color="#FFBEF9"/>
<stop offset="1" stop-color="#FFF1FF"/>
</linearGradient>
</defs>
</svg>
