<svg width="59" height="51" viewBox="0 0 59 51" fill="none" xmlns="http://www.w3.org/2000/svg">
<path d="M1.188 32V19.4H6.66C7.452 19.4 8.142 19.538 8.73 19.814C9.318 20.09 9.774 20.48 10.098 20.984C10.422 21.488 10.584 22.082 10.584 22.766V22.982C10.584 23.738 10.404 24.35 10.044 24.818C9.684 25.286 9.24 25.628 8.712 25.844V26.168C9.192 26.192 9.564 26.36 9.828 26.672C10.092 26.972 10.224 27.374 10.224 27.878V32H7.848V28.22C7.848 27.932 7.77 27.698 7.614 27.518C7.47 27.338 7.224 27.248 6.876 27.248H3.564V32H1.188ZM3.564 25.088H6.408C6.972 25.088 7.41 24.938 7.722 24.638C8.046 24.326 8.208 23.918 8.208 23.414V23.234C8.208 22.73 8.052 22.328 7.74 22.028C7.428 21.716 6.984 21.56 6.408 21.56H3.564V25.088ZM11.697 32L15.009 19.4H19.149L22.461 32H20.013L19.329 29.228H14.829L14.145 32H11.697ZM15.387 27.032H18.771L17.241 20.894H16.917L15.387 27.032ZM23.9692 32V19.4H29.1533C29.9453 19.4 30.6413 19.562 31.2413 19.886C31.8533 20.198 32.3273 20.642 32.6633 21.218C33.0113 21.794 33.1853 22.478 33.1853 23.27V23.522C33.1853 24.302 33.0053 24.986 32.6453 25.574C32.2973 26.15 31.8173 26.6 31.2053 26.924C30.6053 27.236 29.9213 27.392 29.1533 27.392H26.3453V32H23.9692ZM26.3453 25.232H28.9193C29.4833 25.232 29.9393 25.076 30.2873 24.764C30.6353 24.452 30.8093 24.026 30.8093 23.486V23.306C30.8093 22.766 30.6353 22.34 30.2873 22.028C29.9393 21.716 29.4833 21.56 28.9193 21.56H26.3453V25.232Z" fill="white"/>
<path d="M46.12 39.56C44.1467 39.56 42.3733 39.1867 40.8 38.44C39.2533 37.6933 38.0267 36.6133 37.12 35.2C36.24 33.7867 35.8 32.08 35.8 30.08V29.32H39.04V30.04C39.04 32.0933 39.6933 33.7067 41 34.88C42.3067 36.0533 44.0133 36.64 46.12 36.64C48.2533 36.64 49.9067 36.0933 51.08 35C52.28 33.88 52.88 32.48 52.88 30.8V30.48C52.88 29.2533 52.5867 28.2667 52 27.52C51.4133 26.7467 50.6133 26.1867 49.6 25.84C48.6133 25.4667 47.52 25.28 46.32 25.28H41.76V21.24L52.44 14.4V13.92H36.48V11H55.88V15.52L45.44 22.24V22.72H47.44C49.0133 22.72 50.4533 23.0133 51.76 23.6C53.0933 24.16 54.1467 25.0133 54.92 26.16C55.72 27.28 56.12 28.6933 56.12 30.4V30.84C56.12 32.6 55.7067 34.1333 54.88 35.44C54.0533 36.7467 52.8933 37.76 51.4 38.48C49.9067 39.2 48.1467 39.56 46.12 39.56Z" fill="#A93AFF"/>
</svg>
