<svg width="64" height="64" viewBox="0 0 64 64" fill="none" xmlns="http://www.w3.org/2000/svg">
<g clip-path="url(#clip0_3_39)">
<path d="M37.6254 20.7778V20.7486C37.6254 17.6466 35.102 15.1231 32 15.1231C28.898 15.1231 26.3746 17.6466 26.3746 20.7486V20.7761C24.0599 22.5212 22.6243 25.2753 22.6243 28.2492C22.6243 31.0326 23.5233 32.9682 24.7448 34.3233C24.0471 35.1308 23.5893 36.1178 23.43 37.1909C23.0494 39.7286 24.3953 41.7806 26.3746 43.221V43.2502C26.3746 46.3522 28.898 48.8757 32 48.8757C35.102 48.8757 37.6254 46.3522 37.6254 43.2502V43.2227C39.9401 41.4776 41.3757 38.7235 41.3757 35.7496C41.3757 32.9662 40.4767 31.0306 39.2552 29.6755C41.2681 27.3457 41.361 23.4963 37.6254 20.7778ZM63.4508 30.6714L59.7028 26.9233C58.9704 26.1909 57.7836 26.1909 57.0512 26.9233C56.3188 27.6557 56.3188 28.8425 57.0512 29.5749L57.6006 30.1243H50.7515C49.715 30.1243 48.8763 30.963 48.8763 31.9995C48.8763 33.0359 49.715 33.8746 50.7515 33.8746H57.6006L57.0512 34.424C56.3188 35.1565 56.3188 36.3432 57.0512 37.0756C57.7836 37.808 58.9702 37.808 59.7028 37.0756L63.4508 33.3276C64.1766 32.6036 64.188 31.4065 63.4508 30.6714ZM6.39938 33.8746H13.2485C14.285 33.8746 15.1237 33.0359 15.1237 31.9995C15.1237 30.963 14.285 30.1243 13.2485 30.1243H6.39938L6.9488 29.5749C7.68123 28.8425 7.68123 27.6557 6.9488 26.9233C6.21636 26.1909 5.02965 26.1909 4.29721 26.9233L0.549171 30.6714C-0.176636 31.3953 -0.188012 32.5923 0.549171 33.3276L4.29721 37.0756C5.02965 37.808 6.21624 37.808 6.9488 37.0756C7.68123 36.3432 7.68123 35.1565 6.9488 34.424L6.39938 33.8746ZM53.2144 46.0356C52.178 46.0356 51.3393 46.8742 51.3393 47.9107V48.6871L46.5855 43.9334C45.8531 43.201 44.6664 43.201 43.9339 43.9334C43.2015 44.6658 43.2015 45.8525 43.9339 46.585L48.6877 51.3387H47.9112C46.8748 51.3387 46.0361 52.1774 46.0361 53.2139C46.0361 54.2503 46.8748 55.089 47.9112 55.089H53.2144C54.2402 55.089 55.0896 54.2481 55.0896 53.2139V47.9107C55.0896 46.8742 54.2509 46.0356 53.2144 46.0356ZM15.3123 12.6602H16.0888C17.1252 12.6602 17.9639 11.8215 17.9639 10.7851C17.9639 9.7486 17.1252 8.90991 16.0888 8.90991H10.7856C9.75151 8.90991 8.91045 9.75872 8.91045 10.7851V16.0882C8.91045 17.1247 9.74914 17.9634 10.7856 17.9634C11.8221 17.9634 12.6607 17.1247 12.6607 16.0882V15.3118L17.4145 20.0655C18.1469 20.798 19.3335 20.798 20.0661 20.0655C20.7985 19.3331 20.7985 18.1464 20.0661 17.4139L15.3123 12.6602ZM17.4145 43.9334L12.6607 48.6871V47.9107C12.6607 46.8742 11.8221 46.0356 10.7856 46.0356C9.74914 46.0356 8.91045 46.8742 8.91045 47.9107V53.2139C8.91045 54.2478 9.75926 55.089 10.7856 55.089H16.0888C17.1252 55.089 17.9639 54.2503 17.9639 53.2139C17.9639 52.1774 17.1252 51.3387 16.0888 51.3387H15.3123L20.0661 46.585C20.7985 45.8525 20.7985 44.6658 20.0661 43.9334C19.3336 43.201 18.147 43.2008 17.4145 43.9334ZM46.5855 20.0655L51.3393 15.3118V16.0882C51.3393 17.1247 52.178 17.9634 53.2144 17.9634C54.2509 17.9634 55.0896 17.1247 55.0896 16.0882V10.7851C55.0896 9.75922 54.2486 8.90991 53.2144 8.90991H47.9112C46.8748 8.90991 46.0361 9.7486 46.0361 10.7851C46.0361 11.8215 46.8748 12.6602 47.9112 12.6602H48.6877L43.9339 17.4139C43.2015 18.1464 43.2015 19.3331 43.9339 20.0655C44.6664 20.798 45.853 20.798 46.5855 20.0655ZM30.1249 50.7509V57.6001L29.5754 57.0507C28.843 56.3182 27.6563 56.3182 26.9239 57.0507C26.1914 57.7831 26.1914 58.9698 26.9239 59.7022L30.6719 63.4503C31.3898 64.1701 32.5839 64.1964 33.3281 63.4503L37.0761 59.7022C37.8086 58.9698 37.8086 57.7831 37.0761 57.0507C36.3437 56.3182 35.157 56.3182 34.4246 57.0507L33.8751 57.6001V50.7509C33.8751 49.7145 33.0365 48.8758 32 48.8758C30.9635 48.8758 30.1249 49.7145 30.1249 50.7509ZM33.8751 13.248V6.39884L34.4246 6.94825C35.157 7.68069 36.3436 7.68069 37.0761 6.94825C37.8086 6.21582 37.8086 5.0291 37.0761 4.29667L33.3281 0.548629C32.6043 -0.177177 31.4072 -0.188553 30.6719 0.548629L26.924 4.29655C26.1915 5.02898 26.1915 6.2157 26.924 6.94813C27.6564 7.68056 28.8431 7.68056 29.5756 6.94813L30.125 6.39871V13.2479C30.125 14.2843 30.9637 15.123 32.0001 15.123C33.0365 15.1231 33.8751 14.2845 33.8751 13.248Z" fill="url(#paint0_linear_3_39)"/>
<path d="M32 11.3728C20.6365 11.3728 11.3734 20.6359 11.3734 31.9994C11.3734 43.3627 20.6365 52.626 32 52.626C43.3635 52.626 52.6266 43.3627 52.6266 31.9994C52.6266 20.6359 43.3635 11.3728 32 11.3728ZM33.8751 41.0375V43.2503C33.8751 44.3003 33.0502 45.1254 32 45.1254C30.9498 45.1254 30.1249 44.3003 30.1249 43.2503V41C29.1122 40.625 28.1746 40.025 27.4996 39.1248C26.8622 38.2999 27.0496 37.1373 27.8748 36.4998C28.6997 35.8996 29.8998 36.0495 30.4999 36.8747C30.875 37.3622 31.4002 37.6247 32.0001 37.6247C33.0503 37.6247 33.8753 36.7995 33.8753 35.7496C33.8753 34.512 33.6503 34.3245 31.5501 33.8369C29.6374 33.3494 26.3747 32.5617 26.3747 28.249C26.3747 25.8112 27.9497 23.7486 30.125 22.961V20.7484C30.125 19.6982 30.9499 18.8733 32.0001 18.8733C33.0503 18.8733 33.8753 19.6982 33.8753 20.7484V22.9985C34.888 23.3736 35.8255 23.9735 36.5005 24.8736C37.1379 25.6988 36.9505 26.8614 36.1253 27.4988C35.3004 28.1364 34.1378 27.9488 33.5002 27.1239C32.5252 25.8112 30.1249 26.6364 30.1249 28.249C30.1249 29.4865 30.3499 29.6741 32.45 30.1616C34.3627 30.6492 37.6254 31.4366 37.6254 35.7496C37.6254 38.1873 36.0504 40.2501 33.8751 41.0375Z" fill="url(#paint1_linear_3_39)"/>
</g>
<defs>
<linearGradient id="paint0_linear_3_39" x1="32" y1="64" x2="32" y2="-3.8147e-05" gradientUnits="userSpaceOnUse">
<stop stop-color="#FFBEF9"/>
<stop offset="1" stop-color="#FFF1FF"/>
</linearGradient>
<linearGradient id="paint1_linear_3_39" x1="32" y1="52.626" x2="32" y2="11.3728" gradientUnits="userSpaceOnUse">
<stop stop-color="#A93AFF"/>
<stop offset="1" stop-color="#FF81FF"/>
</linearGradient>
<clipPath id="clip0_3_39">
<rect width="64" height="64" fill="white"/>
</clipPath>
</defs>
</svg>
